<svg version="1.1" id="Layer_1" xmlns="http://www.w3.org/2000/svg" xmlns:xlink="http://www.w3.org/1999/xlink" x="0px" y="0px"
	 width="100%" viewBox="0 0 138 57" enable-background="new 0 0 138 57" xml:space="preserve">
<path fill="#000000" opacity="1.000000" stroke="none" 
	d="
M95.000000,58.000000 
	C63.333344,58.000000 32.166687,58.000000 1.000021,58.000000 
	C1.000014,39.000015 1.000014,20.000031 1.000007,1.000034 
	C46.999969,1.000022 92.999939,1.000022 138.999939,1.000011 
	C138.999954,19.999966 138.999954,38.999931 138.999969,57.999947 
	C124.500000,58.000000 110.000000,58.000000 95.000000,58.000000 
M53.594578,23.930145 
	C53.405815,23.594648 53.217056,23.259151 52.942638,22.445917 
	C52.942638,22.445917 52.790783,21.984926 52.919209,21.465183 
	C52.619888,21.379761 52.320572,21.294336 51.345745,21.065414 
	C50.891857,21.118851 50.437973,21.172289 49.474468,21.105083 
	C49.288166,21.388226 49.101868,21.671368 48.976364,22.002071 
	C48.976364,22.002071 48.955231,21.927834 48.406761,22.069057 
	C48.590305,22.416874 48.773849,22.764690 49.000431,23.727858 
	C48.957272,24.135298 48.914112,24.542738 48.174953,25.265188 
	C45.824314,25.823353 43.473675,26.381517 41.014580,26.289684 
	C40.956547,25.856113 40.898514,25.422541 40.992470,24.240858 
	C40.335133,23.550480 39.677799,22.860102 38.155476,22.012386 
	C37.539074,22.121241 36.401981,22.171633 36.382240,22.347481 
	C35.855839,27.035917 34.852417,31.782419 35.206192,36.421741 
	C35.475494,39.953281 37.931316,40.110733 40.653473,37.019638 
	C41.064682,37.030029 41.475891,37.040424 42.207069,37.721458 
	C44.452652,37.821049 46.698231,37.920643 49.127678,38.645790 
	C49.743996,38.706646 50.360317,38.767502 51.667252,38.838406 
	C52.414974,37.568993 53.162697,36.299583 54.033379,35.730793 
	C55.013027,36.517624 55.992676,37.304459 57.089340,38.605618 
	C57.392349,38.677532 57.695354,38.749443 58.812397,38.966618 
	C60.851246,38.194626 62.890095,37.422630 65.323486,36.501244 
	C66.529518,38.287052 66.529518,38.287052 75.538490,38.942631 
	C76.003792,38.641029 76.469101,38.339428 77.271927,38.709499 
	C78.504944,38.754845 79.737961,38.800190 81.625458,38.961796 
	C82.065132,39.012833 82.504799,39.063869 83.231087,39.619740 
	C84.186020,39.089138 85.140953,38.558540 86.739296,37.774216 
	C86.875389,37.682957 87.000923,37.557102 87.150902,37.511360 
	C87.271187,37.474667 87.536453,37.519585 87.541214,37.554790 
	C87.709419,38.799721 87.611008,40.148743 88.074280,41.265713 
	C88.498314,42.288071 89.525803,43.060135 90.287361,43.942497 
	C90.910637,43.062313 91.527252,42.177311 92.159233,41.303425 
	C92.688110,40.572105 93.087440,39.612091 93.802048,39.175892 
	C95.794250,37.959850 97.920486,36.963387 100.780785,35.980389 
	C101.836716,36.039036 102.892647,36.097683 104.299095,36.727894 
	C105.177734,36.867077 106.056366,37.006264 107.270523,37.730152 
	C108.506027,38.102081 109.741531,38.474007 111.590446,38.797077 
	C116.192039,38.624184 116.172028,35.361134 116.843460,31.949543 
	C118.210503,31.816912 120.672760,31.319067 120.769760,31.609941 
	C121.488121,33.764210 121.735909,36.075397 122.196312,38.707382 
	C125.668724,38.515171 129.292587,38.314575 134.423492,38.030560 
	C128.875793,33.658367 130.923431,30.061142 133.847580,25.478020 
	C130.444153,26.216213 128.270004,26.687780 126.192421,27.138403 
	C127.285690,21.005583 127.225464,20.928577 121.520332,21.296196 
	C121.011200,22.596106 120.502075,23.896015 119.494835,25.179325 
	C119.176102,25.355404 119.001610,25.624891 118.491760,26.066538 
	C118.491760,26.066538 118.022629,26.193554 117.348114,26.041149 
	C116.891762,26.085131 116.435402,26.129110 115.332298,26.058985 
	C114.897774,26.095432 114.463257,26.131882 113.388206,26.269199 
	C112.615013,26.797792 111.841820,27.326385 110.933846,27.119390 
	C107.964348,24.374344 104.962341,23.600521 101.346710,27.145382 
	C100.222168,26.834658 99.097626,26.523933 97.184013,26.067574 
	C95.151505,26.314663 93.118996,26.561752 90.682297,26.209364 
	C88.783791,24.867050 86.885292,23.524738 84.144424,22.039288 
	C76.771713,21.927685 76.247169,22.292244 76.152237,27.047556 
	C75.102737,26.745417 74.053246,26.443275 72.128830,26.006847 
	C70.200401,26.006847 68.271973,26.006847 66.712990,26.006847 
	C66.135178,28.535675 65.630524,30.744335 65.013657,32.217758 
	C64.713593,31.132055 64.413536,30.046354 63.993111,28.256678 
	C63.341152,27.810812 62.689194,27.364948 62.011581,26.976044 
	C62.011581,26.976044 62.068905,26.951288 61.780544,26.271448 
	C59.251419,23.673372 57.088661,25.135653 54.293484,27.176394 
	C54.072445,27.689606 53.851402,28.202818 53.278988,29.531849 
	C53.064121,27.414619 52.941010,26.201519 52.974613,24.523140 
	C52.974613,24.523140 53.088768,24.045633 53.025391,23.999193 
	C53.025391,23.999193 53.047123,24.074699 53.594578,23.930145 
M22.289574,15.259519 
	C22.289574,15.259519 22.333988,15.221759 22.734217,14.926943 
	C22.892073,14.621261 22.950327,14.297621 23.375055,13.729059 
	C23.554483,13.441042 23.733912,13.153025 24.605276,12.676696 
	C25.517893,10.803614 26.430510,8.930531 27.683977,6.357874 
	C24.252890,6.357874 22.066446,6.357874 19.336269,6.205550 
	C19.150818,6.173365 18.965368,6.141181 18.778940,5.720044 
	C18.600061,5.852756 18.421181,5.985468 17.657814,6.317627 
	C17.146202,6.950274 16.634590,7.582922 15.481038,8.336989 
	C15.048719,9.244313 14.616400,10.151637 13.833408,11.655049 
	C10.743201,15.739431 7.528271,19.739252 4.658032,23.972771 
	C4.010201,24.928301 4.562787,26.697691 4.562787,28.092438 
	C5.583496,29.786758 5.216693,31.593002 5.783275,33.031654 
	C5.980480,33.532391 8.485160,33.124382 9.991331,33.884045 
	C10.138062,34.887814 10.284793,35.891582 10.434665,36.916843 
	C11.857296,36.575779 12.900822,36.325596 13.961999,36.667477 
	C13.946898,37.061882 13.931798,37.456284 13.335629,38.199390 
	C13.205791,39.774776 13.075954,41.350159 12.179598,43.036419 
	C10.551562,46.326195 14.174030,54.743130 17.467127,54.872101 
	C18.627453,54.917542 20.409248,53.966446 20.914268,52.968052 
	C22.213396,50.399761 22.956951,47.550446 23.922523,44.813431 
	C23.473919,44.715000 23.025314,44.616566 22.576710,44.518131 
	C22.744564,43.022297 22.912418,41.526459 23.776983,39.923855 
	C31.221804,33.566971 32.659626,28.424034 28.344379,21.069099 
	C27.892052,21.054934 27.439724,21.040766 27.000792,20.999859 
	C27.000792,20.999859 26.977522,21.018276 26.873899,20.564095 
	C26.591148,20.711176 26.308395,20.858257 25.515009,21.070524 
	C25.347094,21.035187 25.179178,20.999851 24.749592,20.316540 
	C23.173344,19.548903 21.597095,18.781265 20.000402,17.999542 
	C20.000402,17.999542 20.016870,18.016521 20.536829,17.863323 
	C20.829771,17.432749 21.122713,17.002174 21.520271,16.445314 
	C21.520271,16.445314 21.582468,16.293577 21.935951,16.066456 
	C22.159908,15.867129 22.276468,15.617537 22.289574,15.259519 
z"/>
<path fill="#F8FEF6" opacity="1.000000" stroke="none" 
	d="
M52.817894,24.988419 
	C52.941010,26.201519 53.064121,27.414619 53.278988,29.531849 
	C53.851402,28.202818 54.072445,27.689606 54.785042,27.296654 
	C56.183857,31.218393 57.091110,35.019875 57.998363,38.821354 
	C57.695354,38.749443 57.392349,38.677532 56.914066,38.051811 
	C55.795998,36.675392 54.853207,35.852783 53.910416,35.030174 
	C53.162697,36.299583 52.414974,37.568993 51.130150,38.620087 
	C50.043301,38.274593 49.493557,38.147415 48.943813,38.020237 
	C46.698231,37.920643 44.452652,37.821049 42.301582,37.199730 
	C41.964554,35.914730 41.533012,35.151459 41.101471,34.388191 
	C40.748871,35.297741 40.396271,36.207287 40.043671,37.116833 
	C37.931316,40.110733 35.475494,39.953281 35.206192,36.421741 
	C34.852417,31.782419 35.855839,27.035917 36.382240,22.347481 
	C36.401981,22.171633 37.539074,22.121241 38.715839,22.344795 
	C39.797630,23.447790 40.319054,24.218380 40.840477,24.988970 
	C40.898514,25.422541 40.956547,25.856113 40.790237,26.832130 
	C40.356964,31.161840 45.298943,34.352009 49.962257,33.091091 
	C49.604012,30.418665 49.237484,27.684422 48.870956,24.950178 
	C48.914112,24.542738 48.957272,24.135298 48.994217,23.123943 
	C48.977077,22.322630 48.966152,22.125231 48.955231,21.927834 
	C48.955231,21.927834 48.976364,22.002071 49.160927,21.917509 
	C49.624771,21.700396 49.837639,21.497988 49.984085,21.225725 
	C50.437973,21.172289 50.891857,21.118851 51.771820,21.302387 
	C52.352821,21.744699 52.550449,21.893223 52.790783,21.984926 
	C52.790783,21.984926 52.942638,22.445917 52.976387,22.972801 
	C53.022469,23.691355 53.034798,23.883028 53.047123,24.074699 
	C53.047123,24.074699 53.025391,23.999193 52.882401,24.073032 
	C52.653080,24.229824 52.478752,24.345850 52.495388,24.390102 
	C52.574375,24.600258 52.705399,24.790857 52.817894,24.988419 
z"/>
<path fill="#3BC85E" opacity="1.000000" stroke="none" 
	d="
M114.028732,26.168331 
	C114.463257,26.131882 114.897774,26.095432 115.705139,26.394550 
	C116.395569,27.024067 116.713165,27.318016 117.030762,27.611965 
	C117.361382,27.139162 117.692001,26.666357 118.022629,26.193554 
	C118.022629,26.193554 118.491760,26.066538 118.944611,25.958107 
	C119.664856,25.694536 119.863358,25.476620 119.992943,25.195923 
	C120.502075,23.896015 121.011200,22.596106 121.522171,21.296932 
	C127.225464,20.928577 127.285690,21.005583 126.192421,27.138403 
	C128.270004,26.687780 130.444153,26.216213 133.847580,25.478020 
	C130.923431,30.061142 128.875793,33.658367 134.423492,38.030560 
	C129.292587,38.314575 125.668724,38.515171 122.196312,38.707382 
	C121.735909,36.075397 121.488121,33.764210 120.769760,31.609941 
	C120.672760,31.319067 118.210503,31.816912 116.179367,31.794563 
	C115.019760,29.815832 114.524246,27.992081 114.028732,26.168331 
z"/>
<path fill="#41C461" opacity="1.000000" stroke="none" 
	d="
M99.993797,35.880226 
	C97.920486,36.963387 95.794250,37.959850 93.802048,39.175892 
	C93.087440,39.612091 92.688110,40.572105 92.159233,41.303425 
	C91.527252,42.177311 90.910637,43.062313 90.287361,43.942497 
	C89.525803,43.060135 88.498314,42.288071 88.074280,41.265713 
	C87.611008,40.148743 87.709419,38.799721 87.541214,37.554790 
	C87.536453,37.519585 87.271187,37.474667 87.150902,37.511360 
	C87.000923,37.557102 86.875389,37.682957 86.059479,37.895702 
	C84.567932,38.383095 83.756203,38.749001 82.944473,39.114906 
	C82.504799,39.063869 82.065132,39.012833 81.166748,38.628136 
	C80.472038,37.529648 80.236031,36.764828 80.375015,36.000175 
	C81.501289,35.998634 82.252586,35.996933 83.239632,35.869545 
	C83.643089,35.435131 83.810791,35.126396 83.970818,34.615444 
	C83.963142,34.413223 83.987434,34.009216 84.210693,33.903282 
	C84.713516,33.597069 84.898582,33.331039 85.161484,32.755814 
	C85.892395,32.340256 86.450958,32.168144 87.315781,31.955875 
	C88.776848,30.213427 89.931671,28.511135 91.086487,26.808842 
	C93.118996,26.561752 95.151505,26.314663 97.637848,26.501476 
	C98.725716,29.916996 99.359756,32.898609 99.993797,35.880226 
z"/>
<path fill="#F7FCF6" opacity="1.000000" stroke="none" 
	d="
M58.405380,38.893986 
	C57.091110,35.019875 56.183857,31.218393 55.114319,27.152248 
	C57.088661,25.135653 59.251419,23.673372 61.538689,26.626293 
	C60.270321,27.522064 59.243813,28.062990 58.217304,28.603916 
	C59.231533,29.123415 60.245766,29.642914 60.988213,30.023203 
	C60.988213,31.394125 60.988213,32.928017 60.988213,34.861481 
	C62.826103,34.013756 63.975983,33.483376 65.125862,32.952995 
	C65.630524,30.744335 66.135178,28.535675 66.712990,26.006847 
	C68.271973,26.006847 70.200401,26.006847 72.632019,26.445459 
	C73.744171,30.869827 74.353134,34.855579 74.962097,38.841335 
	C66.529518,38.287052 66.529518,38.287052 65.323486,36.501244 
	C62.890095,37.422630 60.851246,38.194626 58.405380,38.893986 
z"/>
<path fill="#3FC160" opacity="1.000000" stroke="none" 
	d="
M13.916697,37.850689 
	C13.931798,37.456284 13.946898,37.061882 13.963942,36.341660 
	C13.965884,36.015839 14.010344,35.970901 14.371344,35.970917 
	C17.157892,33.316280 19.583441,30.661621 22.152847,27.947208 
	C22.195095,27.921597 22.093483,27.955740 21.693632,27.960327 
	C20.931446,27.605890 20.467499,27.281010 19.972126,26.634537 
	C19.613590,25.516031 19.286478,24.719116 19.074211,23.665432 
	C19.748631,22.922613 20.308207,22.436565 21.218349,21.968185 
	C22.035402,21.988794 22.501888,21.991734 23.124657,22.161392 
	C23.857714,21.873579 24.434488,21.419046 25.011263,20.964514 
	C25.179178,20.999851 25.347094,21.035187 26.008005,21.058571 
	C26.501001,21.046619 26.977522,21.018276 26.977522,21.018276 
	C26.977522,21.018276 27.000792,20.999859 27.120579,21.240253 
	C27.829605,21.391357 28.418842,21.302065 29.008081,21.212772 
	C32.659626,28.424034 31.221804,33.566971 23.060537,39.961559 
	C21.853659,39.970901 21.363224,39.942535 20.913429,39.560104 
	C21.848906,37.135330 22.743744,35.064625 23.638580,32.993919 
	C23.200439,32.761875 22.762297,32.529831 22.324154,32.297787 
	C19.946520,35.180706 17.568888,38.063625 14.647773,41.605522 
	C14.271754,39.674274 14.094226,38.762482 13.916697,37.850689 
M25.507755,23.358124 
	C25.507755,23.358124 25.412601,23.527157 25.412601,23.527157 
	C25.412601,23.527157 25.600145,23.502504 25.507755,23.358124 
z"/>
<path fill="#3EC759" opacity="1.000000" stroke="none" 
	d="
M9.935991,33.131405 
	C8.485160,33.124382 5.980480,33.532391 5.783275,33.031654 
	C5.216693,31.593002 5.583496,29.786758 4.562787,28.092438 
	C4.562787,26.697691 4.010201,24.928301 4.658032,23.972771 
	C7.528271,19.739252 10.743201,15.739431 14.325028,11.286415 
	C15.252091,10.017044 15.687534,9.116306 16.122978,8.215569 
	C16.634590,7.582922 17.146202,6.950274 18.084446,6.237282 
	C18.511076,6.156937 18.779921,6.108997 18.779921,6.108997 
	C18.965368,6.141181 19.150818,6.173365 19.621502,6.622502 
	C19.603580,8.364983 19.300428,9.690510 18.997307,11.008329 
	C18.997337,11.000622 19.007505,11.008614 18.700623,11.150553 
	C15.377923,15.264528 10.875595,18.381365 10.891094,24.397781 
	C11.513420,25.421118 12.237878,26.202768 12.862789,27.261906 
	C12.187912,28.329689 11.612580,29.119987 10.996887,30.253006 
	C10.616348,31.440952 10.276170,32.286179 9.935991,33.131405 
z"/>
<path fill="#3FCB66" opacity="1.000000" stroke="none" 
	d="
M20.872791,39.914169 
	C21.363224,39.942535 21.853659,39.970901 22.712181,40.014942 
	C22.912418,41.526459 22.744564,43.022297 22.576710,44.518131 
	C23.025314,44.616566 23.473919,44.715000 23.922523,44.813431 
	C22.956951,47.550446 22.213396,50.399761 20.914268,52.968052 
	C20.409248,53.966446 18.627453,54.917542 17.467127,54.872101 
	C14.174030,54.743130 10.551562,46.326195 12.798359,43.264587 
	C17.365028,45.347271 19.018738,42.422020 20.872791,39.914169 
z"/>
<path fill="#40C562" opacity="1.000000" stroke="none" 
	d="
M110.977036,38.845932 
	C109.741531,38.474007 108.506027,38.102081 107.154823,37.124535 
	C107.556084,35.581886 108.073036,34.644855 108.632217,33.631302 
	C107.249687,33.381348 106.148926,33.182335 105.249969,32.701790 
	C107.230316,30.445950 108.943962,28.551094 104.297981,28.279776 
	C103.473312,28.231619 102.692863,27.426069 101.891998,26.970263 
	C104.962341,23.600521 107.964348,24.374344 110.986351,27.893948 
	C111.018250,32.060978 110.997643,35.453457 110.977036,38.845932 
z"/>
<path fill="#F7FCF6" opacity="1.000000" stroke="none" 
	d="
M48.522957,25.107683 
	C49.237484,27.684422 49.604012,30.418665 49.962257,33.091091 
	C45.298943,34.352009 40.356964,31.161840 40.844463,27.157129 
	C43.473675,26.381517 45.824314,25.823353 48.522957,25.107683 
z"/>
<path fill="#4FCF6D" opacity="1.000000" stroke="none" 
	d="
M76.841782,27.114614 
	C76.247169,22.292244 76.771713,21.927685 84.561798,22.464846 
	C84.973358,24.925571 84.967545,26.960739 84.741974,29.093491 
	C84.238617,29.371914 84.049316,29.623669 83.613152,29.987236 
	C82.424416,30.367002 81.576843,30.705872 80.391663,31.052197 
	C79.365738,31.043720 78.677414,31.027792 77.918671,30.825882 
	C77.848244,30.639904 77.791649,30.246218 77.774063,29.980179 
	C77.504181,29.476789 77.251877,29.239439 76.933685,28.691624 
	C76.859116,27.958979 76.850449,27.536797 76.841782,27.114614 
M81.744904,26.833456 
	C81.583031,26.886637 81.421158,26.939819 81.259285,26.993002 
	C81.422165,27.045338 81.585045,27.097673 81.744904,26.833456 
z"/>
<path fill="#40C864" opacity="1.000000" stroke="none" 
	d="
M12.962336,26.984419 
	C12.237878,26.202768 11.513420,25.421118 11.179941,24.204346 
	C14.056027,20.208733 16.541136,16.648243 19.207577,12.967121 
	C19.459967,12.720105 19.622700,12.540889 19.585741,12.476757 
	C19.447605,12.237066 19.244068,12.035066 19.066467,11.615228 
	C19.067871,11.411527 19.007505,11.008614 19.007505,11.008614 
	C19.007505,11.008614 18.997337,11.000622 19.346424,11.018006 
	C21.305145,9.897031 22.914780,8.758671 25.109198,7.206741 
	C24.617512,9.533182 24.265427,11.199095 23.913340,12.865007 
	C23.733912,13.153025 23.554483,13.441042 22.915237,13.978172 
	C22.414944,14.558777 22.374466,14.890267 22.333988,15.221759 
	C22.333988,15.221759 22.289574,15.259519 21.996775,15.279093 
	C21.663473,15.630304 21.622971,15.961941 21.582470,16.293577 
	C21.582468,16.293577 21.520271,16.445314 21.152607,16.416449 
	C20.528919,16.930563 20.272894,17.473541 20.016870,18.016521 
	C20.016870,18.016521 20.000402,17.999542 19.669689,18.046358 
	C17.213428,21.056923 15.087882,24.020670 12.962336,26.984419 
z"/>
<path fill="#2FB042" opacity="1.000000" stroke="none" 
	d="
M20.913429,39.560104 
	C19.018738,42.422020 17.365028,45.347271 13.181618,43.209152 
	C13.075954,41.350159 13.205791,39.774776 13.626163,38.025040 
	C14.094226,38.762482 14.271754,39.674274 14.647773,41.605522 
	C17.568888,38.063625 19.946520,35.180706 22.324154,32.297787 
	C22.762297,32.529831 23.200439,32.761875 23.638580,32.993919 
	C22.743744,35.064625 21.848906,37.135330 20.913429,39.560104 
z"/>
<path fill="#23973E" opacity="1.000000" stroke="none" 
	d="
M12.862789,27.261906 
	C15.087882,24.020670 17.213428,21.056923 19.679913,18.053402 
	C21.597095,18.781265 23.173344,19.548903 24.880428,20.640526 
	C24.434488,21.419046 23.857714,21.873579 23.120731,21.884171 
	C22.262943,21.610327 21.565363,21.780420 20.867783,21.950516 
	C20.308207,22.436565 19.748631,22.922613 18.811256,23.875050 
	C15.968055,26.197721 13.502651,28.054003 11.037248,29.910286 
	C11.612580,29.119987 12.187912,28.329689 12.862789,27.261906 
z"/>
<path fill="#33B443" opacity="1.000000" stroke="none" 
	d="
M101.619354,27.057823 
	C102.692863,27.426069 103.473312,28.231619 104.297981,28.279776 
	C108.943962,28.551094 107.230316,30.445950 104.974014,32.922096 
	C104.313698,34.334736 104.131142,35.245533 103.948578,36.156330 
	C102.892647,36.097683 101.836716,36.039036 100.387291,35.930305 
	C99.359756,32.898609 98.725716,29.916996 98.032379,26.574295 
	C99.097626,26.523933 100.222168,26.834658 101.619354,27.057823 
z"/>
<path fill="#36B54C" opacity="1.000000" stroke="none" 
	d="
M111.283737,38.821503 
	C110.997643,35.453457 111.018250,32.060978 111.053741,28.261740 
	C111.841820,27.326385 112.615013,26.797792 113.708466,26.218765 
	C114.524246,27.992081 115.019760,29.815832 115.805176,31.849796 
	C116.172028,35.361134 116.192039,38.624184 111.283737,38.821503 
z"/>
<path fill="#40CB61" opacity="1.000000" stroke="none" 
	d="
M10.996887,30.253006 
	C13.502651,28.054003 15.968055,26.197721 18.696411,24.131821 
	C19.286478,24.719116 19.613590,25.516031 19.668665,26.791271 
	C17.601198,30.170031 15.805771,33.070465 14.010344,35.970901 
	C14.010344,35.970901 13.965884,36.015839 13.955115,36.045628 
	C12.900822,36.325596 11.857296,36.575779 10.434665,36.916843 
	C10.284793,35.891582 10.138062,34.887814 9.963661,33.507725 
	C10.276170,32.286179 10.616348,31.440952 10.996887,30.253006 
z"/>
<path fill="#50BF67" opacity="1.000000" stroke="none" 
	d="
M84.961731,28.995907 
	C84.967545,26.960739 84.973358,24.925571 84.982971,22.536415 
	C86.885292,23.524738 88.783791,24.867050 90.884392,26.509102 
	C89.931671,28.511135 88.776848,30.213427 87.269882,31.637674 
	C86.281075,30.903835 85.644432,30.448038 85.005913,29.742754 
	C85.004044,29.493267 84.961731,28.995907 84.961731,28.995907 
z"/>
<path fill="#F8FEF6" opacity="1.000000" stroke="none" 
	d="
M65.069763,32.585377 
	C63.975983,33.483376 62.826103,34.013756 60.988213,34.861481 
	C60.988213,32.928017 60.988213,31.394125 60.988213,30.023203 
	C60.245766,29.642914 59.231533,29.123415 58.217304,28.603916 
	C59.243813,28.062990 60.270321,27.522064 61.682869,26.966213 
	C62.068905,26.951288 62.011581,26.976044 62.133667,27.232273 
	C62.874996,27.979218 63.494232,28.469936 64.113472,28.960653 
	C64.413536,30.046354 64.713593,31.132055 65.069763,32.585377 
z"/>
<path fill="#D0F5CC" opacity="1.000000" stroke="none" 
	d="
M77.791649,30.246218 
	C77.791649,30.246218 77.848244,30.639904 77.899673,31.141861 
	C77.964584,32.065460 77.978065,32.487103 77.678787,33.143421 
	C77.222153,34.931339 77.078278,36.484585 76.934402,38.037827 
	C76.469101,38.339428 76.003792,38.641029 75.250290,38.891983 
	C74.353134,34.855579 73.744171,30.869827 73.069481,26.512604 
	C74.053246,26.443275 75.102737,26.745417 76.497009,27.081085 
	C76.850449,27.536797 76.859116,27.958979 76.986221,28.942881 
	C77.333656,29.751806 77.562653,29.999012 77.791649,30.246218 
z"/>
<path fill="#23973E" opacity="1.000000" stroke="none" 
	d="
M24.259308,12.770852 
	C24.265427,11.199095 24.617512,9.533182 25.109198,7.206741 
	C22.914780,8.758671 21.305145,9.897031 19.346394,11.025714 
	C19.300428,9.690510 19.603580,8.364983 19.893368,6.698665 
	C22.066446,6.357874 24.252890,6.357874 27.683977,6.357874 
	C26.430510,8.930531 25.517893,10.803614 24.259308,12.770852 
z"/>
<path fill="#3BB64E" opacity="1.000000" stroke="none" 
	d="
M104.123840,36.442112 
	C104.131142,35.245533 104.313698,34.334736 104.772209,33.203629 
	C106.148926,33.182335 107.249687,33.381348 108.632217,33.631302 
	C108.073036,34.644855 107.556084,35.581886 106.987061,36.832184 
	C106.056366,37.006264 105.177734,36.867077 104.123840,36.442112 
z"/>
<path fill="#4DC566" opacity="1.000000" stroke="none" 
	d="
M77.103165,38.373665 
	C77.078278,36.484585 77.222153,34.931339 77.665604,33.242844 
	C77.965179,33.107586 78.005882,33.303776 78.016205,33.627487 
	C78.684258,34.634083 79.341972,35.316963 79.999847,35.999924 
	C80.000000,36.000000 80.000015,36.000008 80.000015,36.000008 
	C80.236031,36.764828 80.472038,37.529648 80.839508,38.570000 
	C79.737961,38.800190 78.504944,38.754845 77.103165,38.373665 
z"/>
<path fill="#F7FCF6" opacity="1.000000" stroke="none" 
	d="
M40.348572,37.068237 
	C40.396271,36.207287 40.748871,35.297741 41.101471,34.388191 
	C41.533012,35.151459 41.964554,35.914730 42.141602,36.864407 
	C41.475891,37.040424 41.064682,37.030029 40.348572,37.068237 
z"/>
<path fill="#23973E" opacity="1.000000" stroke="none" 
	d="
M15.802008,8.276279 
	C15.687534,9.116306 15.252091,10.017044 14.500364,10.988371 
	C14.616400,10.151637 15.048719,9.244313 15.802008,8.276279 
z"/>
<path fill="#F7FCF6" opacity="1.000000" stroke="none" 
	d="
M53.971897,35.380482 
	C54.853207,35.852783 55.795998,36.675392 56.855556,37.794647 
	C55.992676,37.304459 55.013027,36.517624 53.971897,35.380482 
z"/>
<path fill="#36B54C" opacity="1.000000" stroke="none" 
	d="
M117.685371,26.117352 
	C117.692001,26.666357 117.361382,27.139162 117.030762,27.611965 
	C116.713165,27.318016 116.395569,27.024067 116.028511,26.451605 
	C116.435402,26.129110 116.891762,26.085131 117.685371,26.117352 
z"/>
<path fill="#F7FCF6" opacity="1.000000" stroke="none" 
	d="
M40.916473,24.614914 
	C40.319054,24.218380 39.797630,23.447790 39.148335,22.423462 
	C39.677799,22.860102 40.335133,23.550480 40.916473,24.614914 
z"/>
<path fill="#4DC566" opacity="1.000000" stroke="none" 
	d="
M83.087784,39.367325 
	C83.756203,38.749001 84.567932,38.383095 85.737762,38.022568 
	C85.140953,38.558540 84.186020,39.089138 83.087784,39.367325 
z"/>
<path fill="#F7FCF6" opacity="1.000000" stroke="none" 
	d="
M64.053291,28.608665 
	C63.494232,28.469936 62.874996,27.979218 62.146496,27.203793 
	C62.689194,27.364948 63.341152,27.810812 64.053291,28.608665 
z"/>
<path fill="#23973E" opacity="1.000000" stroke="none" 
	d="
M20.276850,17.939922 
	C20.272894,17.473541 20.528919,16.930563 21.100300,16.479591 
	C21.122713,17.002174 20.829771,17.432749 20.276850,17.939922 
z"/>
<path fill="#23973E" opacity="1.000000" stroke="none" 
	d="
M28.676231,21.140936 
	C28.418842,21.302065 27.829605,21.391357 27.113880,21.253624 
	C27.439724,21.040766 27.892052,21.054934 28.676231,21.140936 
z"/>
<path fill="#F7FCF6" opacity="1.000000" stroke="none" 
	d="
M49.035744,38.333015 
	C49.493557,38.147415 50.043301,38.274593 50.784840,38.615067 
	C50.360317,38.767502 49.743996,38.706646 49.035744,38.333015 
z"/>
<path fill="#23973E" opacity="1.000000" stroke="none" 
	d="
M18.779430,5.914520 
	C18.779921,6.108997 18.511076,6.156937 18.376690,6.137559 
	C18.421181,5.985468 18.600061,5.852756 18.779430,5.914520 
z"/>
<path fill="#23973E" opacity="1.000000" stroke="none" 
	d="
M22.534103,15.074350 
	C22.374466,14.890267 22.414944,14.558777 22.682199,14.091654 
	C22.950327,14.297621 22.892073,14.621261 22.534103,15.074350 
z"/>
<path fill="#23973E" opacity="1.000000" stroke="none" 
	d="
M21.759211,16.180016 
	C21.622971,15.961941 21.663473,15.630304 21.994804,15.308174 
	C22.276468,15.617537 22.159908,15.867129 21.759211,16.180016 
z"/>
<path fill="#23973E" opacity="1.000000" stroke="none" 
	d="
M26.925711,20.791185 
	C26.977522,21.018276 26.501001,21.046619 26.263323,21.025978 
	C26.308395,20.858257 26.591148,20.711176 26.925711,20.791185 
z"/>
<path fill="#F7FCF6" opacity="1.000000" stroke="none" 
	d="
M49.729279,21.165405 
	C49.837639,21.497988 49.624771,21.700396 49.130527,21.893730 
	C49.101868,21.671368 49.288166,21.388226 49.729279,21.165405 
z"/>
<path fill="#36B54C" opacity="1.000000" stroke="none" 
	d="
M119.743889,25.187626 
	C119.863358,25.476620 119.664856,25.694536 119.184410,25.918734 
	C119.001610,25.624891 119.176102,25.355404 119.743889,25.187626 
z"/>
<path fill="#F7FCF6" opacity="1.000000" stroke="none" 
	d="
M52.854996,21.725056 
	C52.550449,21.893223 52.352821,21.744699 52.109573,21.374134 
	C52.320572,21.294336 52.619888,21.379761 52.854996,21.725056 
z"/>
<path fill="#F7FCF6" opacity="1.000000" stroke="none" 
	d="
M52.896255,24.755779 
	C52.705399,24.790857 52.574375,24.600258 52.495388,24.390102 
	C52.478752,24.345850 52.653080,24.229824 52.914093,24.096252 
	C53.088768,24.045633 52.974613,24.523140 52.896255,24.755779 
z"/>
<path fill="#F7FCF6" opacity="1.000000" stroke="none" 
	d="
M48.680996,21.998446 
	C48.966152,22.125231 48.977077,22.322630 48.972694,22.816269 
	C48.773849,22.764690 48.590305,22.416874 48.680996,21.998446 
z"/>
<path fill="#F7FCF6" opacity="1.000000" stroke="none" 
	d="
M53.320850,24.002422 
	C53.034798,23.883028 53.022469,23.691355 53.019218,23.211670 
	C53.217056,23.259151 53.405815,23.594648 53.320850,24.002422 
z"/>
<path fill="#31C056" opacity="1.000000" stroke="none" 
	d="
M85.007782,29.992241 
	C85.644432,30.448038 86.281075,30.903835 86.963623,31.677830 
	C86.450958,32.168144 85.892395,32.340256 84.877037,32.764893 
	C84.230835,33.029938 84.041428,33.042465 83.601334,33.054199 
	C83.183640,33.046856 83.016647,33.040302 82.732506,32.762981 
	C81.986664,32.009720 81.357964,31.527229 80.729263,31.044741 
	C81.576843,30.705872 82.424416,30.367002 83.633713,30.009272 
	C83.995430,29.990412 84.039017,30.029369 84.123245,30.188976 
	C84.468117,30.235077 84.728760,30.121572 84.993896,30.004652 
	C84.998398,30.001238 85.007782,29.992241 85.007782,29.992241 
z"/>
<path fill="#4DC566" opacity="1.000000" stroke="none" 
	d="
M83.003876,35.995228 
	C82.252586,35.996933 81.501289,35.998634 80.375008,36.000175 
	C80.000015,36.000008 80.000000,36.000000 80.001129,35.631348 
	C79.996582,34.526894 79.990906,33.791088 80.326332,33.056702 
	C81.122414,33.041897 81.577400,33.025669 82.045616,33.321312 
	C82.386246,34.117340 82.713631,34.601490 83.026497,35.312824 
	C83.011971,35.540009 83.003876,35.995228 83.003876,35.995228 
z"/>
<path fill="#5CEA89" opacity="1.000000" stroke="none" 
	d="
M83.041023,35.085640 
	C82.713631,34.601490 82.386246,34.117340 82.249908,33.321114 
	C82.440956,33.009037 82.849648,33.033752 82.849648,33.033752 
	C83.016647,33.040302 83.183640,33.046856 83.642548,33.291595 
	C83.934448,33.529785 83.987434,34.009216 83.987434,34.009216 
	C83.987434,34.009216 83.963142,34.413223 83.735497,34.679825 
	C83.507851,34.946430 83.041023,35.085640 83.041023,35.085640 
z"/>
<path fill="#2EBF4E" opacity="1.000000" stroke="none" 
	d="
M84.210693,33.903282 
	C83.987434,34.009216 83.934448,33.529785 83.893234,33.292389 
	C84.041428,33.042465 84.230835,33.029938 84.704697,33.008339 
	C84.898582,33.331039 84.713516,33.597069 84.210693,33.903282 
z"/>
<path fill="#2EBF4E" opacity="1.000000" stroke="none" 
	d="
M83.026497,35.312824 
	C83.041023,35.085640 83.507851,34.946430 83.743172,34.882050 
	C83.810791,35.126396 83.643089,35.435131 83.239632,35.869545 
	C83.003876,35.995228 83.011971,35.540009 83.026497,35.312824 
z"/>
<path fill="#28B13F" opacity="1.000000" stroke="none" 
	d="
M14.371344,35.970917 
	C15.805771,33.070465 17.601198,30.170031 19.700089,27.112862 
	C20.467499,27.281010 20.931446,27.605890 21.697598,27.965263 
	C21.999804,27.999754 22.008989,28.006964 22.008989,28.006964 
	C19.583441,30.661621 17.157892,33.316280 14.371344,35.970917 
z"/>
<path fill="#40CB61" opacity="1.000000" stroke="none" 
	d="
M21.218349,21.968185 
	C21.565363,21.780420 22.262943,21.610327 22.964449,21.717453 
	C22.501888,21.991734 22.035402,21.988794 21.218349,21.968185 
z"/>
<path fill="#23973E" opacity="1.000000" stroke="none" 
	d="
M25.553951,23.430313 
	C25.600145,23.502504 25.412601,23.527157 25.412601,23.527157 
	C25.412601,23.527157 25.507755,23.358124 25.553951,23.430313 
z"/>
<path fill="#28B13F" opacity="1.000000" stroke="none" 
	d="
M21.995838,27.994818 
	C22.093483,27.955740 22.195095,27.921597 22.152847,27.947208 
	C22.008989,28.006964 21.999804,27.999754 21.995838,27.994818 
z"/>
<path fill="#28A741" opacity="1.000000" stroke="none" 
	d="
M18.700623,11.150553 
	C19.007505,11.008614 19.067871,11.411527 19.046509,11.933128 
	C19.025513,12.665738 19.025879,12.876746 19.026245,13.087755 
	C16.541136,16.648243 14.056027,20.208733 11.282072,23.962658 
	C10.875595,18.381365 15.377923,15.264528 18.700623,11.150553 
z"/>
<path fill="#7CD988" opacity="1.000000" stroke="none" 
	d="
M82.732506,32.762981 
	C82.849648,33.033752 82.440956,33.009037 82.236664,33.009239 
	C81.577400,33.025669 81.122414,33.041897 79.991074,33.033661 
	C78.878441,33.107391 78.442162,33.205585 78.005882,33.303776 
	C78.005882,33.303776 77.965179,33.107586 77.978363,33.008163 
	C77.978065,32.487103 77.964584,32.065460 77.970108,31.327839 
	C78.677414,31.027792 79.365738,31.043720 80.391663,31.052197 
	C81.357964,31.527229 81.986664,32.009720 82.732506,32.762981 
z"/>
<path fill="#50BF67" opacity="1.000000" stroke="none" 
	d="
M81.746414,26.991732 
	C81.585045,27.097673 81.422165,27.045338 81.259285,26.993002 
	C81.421158,26.939819 81.583031,26.886637 81.746414,26.991732 
z"/>
<path fill="#31C056" opacity="1.000000" stroke="none" 
	d="
M84.741974,29.093491 
	C84.961731,28.995907 85.004044,29.493267 85.005913,29.742754 
	C85.007782,29.992241 84.998398,30.001238 84.756409,30.011753 
	C84.514427,30.022266 84.039017,30.029369 84.039017,30.029369 
	C84.039017,30.029369 83.995430,29.990412 83.974869,29.968376 
	C84.049316,29.623669 84.238617,29.371914 84.741974,29.093491 
z"/>
<path fill="#7CD988" opacity="1.000000" stroke="none" 
	d="
M77.774063,29.980179 
	C77.562653,29.999012 77.333656,29.751806 77.052124,29.253344 
	C77.251877,29.239439 77.504181,29.476789 77.774063,29.980179 
z"/>
<path fill="#23973E" opacity="1.000000" stroke="none" 
	d="
M19.207577,12.967121 
	C19.025879,12.876746 19.025513,12.665738 19.045105,12.136829 
	C19.244068,12.035066 19.447605,12.237066 19.585741,12.476757 
	C19.622700,12.540889 19.459967,12.720105 19.207577,12.967121 
z"/>
<path fill="#41C461" opacity="1.000000" stroke="none" 
	d="
M78.016205,33.627487 
	C78.442162,33.205585 78.878441,33.107391 79.649979,33.032242 
	C79.990906,33.791088 79.996582,34.526894 80.000977,35.631271 
	C79.341972,35.316963 78.684258,34.634083 78.016205,33.627487 
z"/>
<path fill="#50BF67" opacity="1.000000" stroke="none" 
	d="
M84.123245,30.188976 
	C84.039017,30.029369 84.514427,30.022266 84.751915,30.015167 
	C84.728760,30.121572 84.468117,30.235077 84.123245,30.188976 
z"/>
</svg>